<svg version="1.1" id="Layer_1" xmlns="http://www.w3.org/2000/svg" xmlns:xlink="http://www.w3.org/1999/xlink" x="0px" y="0px"
	 width="100%" viewBox="0 0 300 112" enable-background="new 0 0 300 112" xml:space="preserve">
<path fill="#000000" opacity="1.000000" stroke="none" 
	d="
M1.257396,58.255692 
	C1.000000,40.070599 1.081674,22.140438 0.915516,4.212577 
	C0.889373,1.391861 1.550788,0.898239 4.263411,0.922763 
	C21.195351,1.075842 38.129360,1.000000 55.531342,1.000000 
	C56.740032,1.783255 57.459263,2.684564 58.777405,1.225084 
	C138.275070,1.000000 217.550201,1.036911 296.824982,0.886619 
	C300.628296,0.879408 301.097961,1.909160 301.084381,5.319295 
	C300.946198,39.959949 300.953735,74.601540 301.079315,109.242287 
	C301.090546,112.340622 300.409943,113.084923 297.262848,113.080833 
	C218.154434,112.977997 139.045853,113.000000 59.468658,113.000000 
	C58.623516,112.711433 58.510235,112.308197 58.502857,111.858833 
	C58.466866,112.090630 58.463341,112.325935 58.213722,112.778870 
	C40.081573,113.000000 22.162498,112.925026 4.245401,113.079376 
	C1.500922,113.103012 0.870312,112.561592 0.916216,109.772797 
	C1.112791,97.830414 1.000000,85.882935 1.000000,73.468658 
	C2.856783,71.124329 2.005602,68.650055 2.118073,66.536339 
	C2.355751,62.069557 4.912276,58.289062 5.225201,53.849361 
	C5.426353,50.995457 5.370594,48.229473 5.063842,46.057247 
	C5.943219,49.132317 5.214386,52.790882 4.873239,56.490997 
	C4.633333,59.093037 4.019929,60.122520 1.257396,58.255692 
z"/>
<path fill="#0A0A0A" opacity="1.000000" stroke="none" 
	d="
M1.000000,58.466118 
	C4.062984,54.729759 2.721384,50.415733 3.644499,46.636799 
	C4.143140,44.595520 4.153220,42.434898 4.431035,39.895557 
	C9.607339,49.019314 9.684052,49.658081 6.672401,58.104538 
	C4.959329,62.909012 3.223757,67.705467 1.249158,72.752762 
	C1.000000,68.310745 1.000000,63.621487 1.000000,58.466118 
z"/>
<path fill="#0A0A0A" opacity="1.000000" stroke="none" 
	d="
M58.625000,1.000000 
	C58.324017,2.687648 57.549099,3.790051 56.098137,1.236991 
	C56.750000,1.000000 57.500000,1.000000 58.625000,1.000000 
z"/>
<path fill="#0A0A0A" opacity="1.000000" stroke="none" 
	d="
M58.250000,113.000000 
	C58.251431,112.691231 58.535416,112.645683 58.925980,112.931671 
	C59.000000,113.000000 58.500000,113.000000 58.250000,113.000000 
z"/>
<path fill="#0A0A0A" opacity="1.000000" stroke="none" 
	d="
M107.241531,78.732269 
	C107.351479,74.008308 108.395508,69.092979 107.483665,64.044655 
	C107.022980,61.494114 105.930412,60.129505 103.317764,60.029835 
	C99.359634,59.878838 95.414452,58.698437 91.437920,60.218235 
	C90.445267,60.597614 89.068161,60.483257 88.023193,60.132618 
	C79.617889,57.312180 70.828285,58.446163 62.245770,57.506729 
	C60.495075,57.315102 59.030060,58.186344 57.479794,58.785049 
	C55.968399,59.368740 54.460732,59.332554 53.501629,57.794590 
	C52.927860,56.874516 53.179203,55.818451 53.785744,54.965622 
	C54.823326,53.506721 56.239670,53.445370 57.793007,54.049046 
	C65.902565,57.200676 74.469749,56.472664 82.886513,56.940193 
	C87.558403,57.199707 90.266769,54.783813 91.527214,50.285305 
	C92.556107,46.613216 93.484795,42.856503 95.798637,39.288193 
	C95.817284,42.524281 94.505821,45.764874 93.476669,49.078854 
	C91.226021,56.326202 92.428192,57.922955 100.150597,57.990055 
	C100.977592,57.997242 101.804993,57.962921 102.631943,57.971725 
	C106.527679,58.013218 107.606178,56.193577 106.398651,52.578854 
	C105.774277,50.709774 105.505203,48.722008 105.036346,46.395447 
	C106.026909,47.814785 107.056717,49.626537 108.163467,51.573647 
	C109.414261,50.051949 108.824867,48.507439 109.020309,47.097866 
	C109.195862,45.831741 109.334778,44.560535 110.141136,43.349930 
	C109.902252,55.115372 111.196312,66.964005 107.241531,78.732269 
z"/>
<path fill="#0A0A0A" opacity="1.000000" stroke="none" 
	d="
M103.697357,82.092728 
	C103.110916,84.551353 101.587692,86.715996 99.841194,88.723305 
	C97.786446,91.084892 95.952576,94.691521 92.591919,89.882820 
	C92.104462,89.185326 90.437714,89.048454 89.332565,89.088676 
	C81.757195,89.364342 74.159203,88.189644 66.579567,89.941231 
	C64.203918,90.490219 60.494873,90.409119 62.646183,85.600830 
	C63.850086,82.910034 61.149750,80.299660 61.779846,76.963882 
	C63.404419,78.784966 63.554623,80.778976 64.143417,82.561577 
	C64.687393,84.208504 65.172935,85.871567 67.761993,85.066330 
	C68.161484,87.810349 70.228348,87.943382 72.261429,87.953545 
	C78.518013,87.984833 84.775047,87.969429 91.031700,87.934868 
	C96.016701,87.907326 98.855652,83.242874 103.697357,82.092728 
z"/>
<path fill="#0A0A0A" opacity="1.000000" stroke="none" 
	d="
M94.053696,19.375664 
	C98.824951,23.600859 102.474846,29.006702 104.935471,35.648140 
	C103.661247,36.364452 102.480743,39.682240 101.170052,36.630745 
	C98.171494,29.649633 92.681648,27.467495 85.654366,27.677267 
	C85.037827,27.695673 84.409836,27.330374 83.206604,26.968870 
	C84.916039,25.706919 86.345711,26.204109 87.661751,26.326448 
	C94.448730,26.957369 94.976051,26.434669 94.053696,19.375664 
z"/>
<path fill="#0A0A0A" opacity="1.000000" stroke="none" 
	d="
M40.704605,102.885063 
	C45.941933,103.286766 47.638557,107.724457 50.802872,110.773201 
	C41.389904,108.934250 32.963360,103.827583 23.701597,100.470604 
	C27.927443,100.794884 31.903711,102.401833 36.027287,99.647827 
	C37.701618,98.529602 38.232880,102.600250 40.704605,102.885063 
z"/>
<path fill="#0A0A0A" opacity="1.000000" stroke="none" 
	d="
M64.050774,108.149826 
	C65.139717,105.909760 72.947556,104.511421 73.585953,106.379028 
	C74.481392,108.998589 72.552948,109.962631 70.385292,110.146774 
	C68.157524,110.336029 66.264542,109.052773 64.050774,108.149826 
z"/>
<path fill="#0A0A0A" opacity="1.000000" stroke="none" 
	d="
M71.981583,5.493134 
	C74.831329,5.720191 77.263100,6.042059 78.717697,9.695943 
	C73.913139,8.541430 69.345352,8.912079 65.414543,5.426295 
	C67.979950,3.757506 69.766670,5.472080 71.981583,5.493134 
z"/>
<path fill="#0A0A0A" opacity="1.000000" stroke="none" 
	d="
M41.733940,6.632913 
	C43.340923,6.315222 44.635643,5.851658 46.210800,7.002371 
	C43.696674,9.874881 41.111748,11.811514 36.792068,10.054049 
	C37.610283,7.628563 39.856174,7.640269 41.733940,6.632913 
z"/>
<path fill="#0A0A0A" opacity="1.000000" stroke="none" 
	d="
M72.121101,24.147221 
	C73.592682,24.710424 74.783981,25.137426 76.848610,25.877457 
	C74.278755,26.154850 72.655281,26.294477 71.042801,26.514687 
	C69.584167,26.713888 68.021729,27.343206 67.073181,25.599201 
	C66.637344,24.797873 66.918526,23.931145 67.513435,23.297573 
	C69.275749,21.420725 70.449013,23.442863 72.121101,24.147221 
z"/>
<path fill="#0A0A0A" opacity="1.000000" stroke="none" 
	d="
M33.302692,35.443600 
	C31.001335,36.857155 30.333735,38.915958 29.754482,41.116249 
	C27.468830,34.229465 27.823898,33.823215 38.165119,32.847656 
	C35.893276,34.049316 34.742748,34.657871 33.302692,35.443600 
z"/>
<path fill="#0A0A0A" opacity="1.000000" stroke="none" 
	d="
M12.950708,88.026123 
	C11.260938,86.317017 10.698660,84.573517 11.516459,82.480507 
	C15.434869,85.190201 15.899773,86.836769 12.950708,88.026123 
z"/>
<path fill="#0A0A0A" opacity="1.000000" stroke="none" 
	d="
M15.742771,23.189945 
	C15.325135,25.841190 14.489209,28.576138 12.361245,31.685850 
	C11.260538,27.396057 13.247722,25.320372 15.742771,23.189945 
z"/>
<path fill="#0A0A0A" opacity="1.000000" stroke="none" 
	d="
M91.181580,68.250366 
	C91.096909,67.003151 90.501740,66.045258 91.482796,64.773460 
	C92.491043,67.558006 93.245178,70.094398 93.252724,73.213928 
	C91.376945,71.827431 91.758041,70.015160 91.181580,68.250366 
z"/>
<path fill="#0A0A0A" opacity="1.000000" stroke="none" 
	d="
M29.037935,59.285625 
	C28.950460,61.076485 28.873405,62.511967 28.796349,63.947453 
	C27.694017,61.044411 28.034834,58.182991 28.332714,54.793137 
	C29.674992,56.426525 28.861113,57.734821 29.037935,59.285625 
z"/>
<path fill="#0A0A0A" opacity="1.000000" stroke="none" 
	d="
M61.803032,40.280018 
	C61.716732,42.881042 61.271908,45.708794 58.878349,49.470676 
	C59.081108,45.257694 60.224091,42.873158 61.803032,40.280018 
z"/>
<path fill="#0A0A0A" opacity="1.000000" stroke="none" 
	d="
M93.860580,79.815269 
	C94.982819,80.506752 94.982819,80.506752 95.119980,82.778801 
	C93.715996,82.254051 94.137703,80.964775 93.860580,79.815269 
z"/>
<path fill="#0A0A0A" opacity="1.000000" stroke="none" 
	d="
M15.993265,22.981810 
	C17.078876,21.914650 17.871748,20.297966 20.049171,20.819008 
	C19.508276,22.625700 17.915262,22.514885 16.367529,22.997845 
	C16.059855,23.058693 16.015165,23.007692 15.993265,22.981810 
z"/>
<path fill="#0A0A0A" opacity="1.000000" stroke="none" 
	d="
M29.382065,75.008812 
	C28.909534,74.998672 28.543381,74.877556 28.177231,74.756439 
	C28.423197,74.480614 28.669163,74.204796 28.915125,73.928978 
	C29.106230,74.251930 29.297337,74.574883 29.382065,75.008812 
z"/>
<path fill="#0A0A0A" opacity="1.000000" stroke="none" 
	d="
M33.969833,91.648697 
	C32.959301,90.545441 32.026215,89.047401 31.843929,85.844780 
	C33.630985,88.102455 33.750290,89.716103 33.969833,91.648697 
z"/>
<path fill="#0A0A0A" opacity="1.000000" stroke="none" 
	d="
M52.655357,29.011421 
	C51.568920,29.664248 50.275661,30.804743 48.353901,30.288105 
	C49.414928,28.729958 51.001488,29.299746 52.655357,29.011421 
z"/>
<path fill="#0A0A0A" opacity="1.000000" stroke="none" 
	d="
M53.000736,29.001701 
	C54.043732,28.319796 55.005974,27.443058 56.441200,27.586889 
	C56.062618,29.277224 54.594597,28.615196 53.302452,28.972475 
	C52.995003,28.995192 52.999870,28.999882 53.000736,29.001701 
z"/>
<path fill="#0A0A0A" opacity="1.000000" stroke="none" 
	d="
M54.217960,106.660645 
	C53.623962,105.420113 54.560181,105.914925 54.965183,105.933548 
	C55.169376,105.942932 55.358688,106.275986 55.554726,106.462685 
	C55.151760,106.547958 54.748798,106.633240 54.217960,106.660645 
z"/>
<path fill="#0A0A0A" opacity="1.000000" stroke="none" 
	d="
M105.001091,45.999504 
	C104.685997,45.431053 104.270050,44.893013 104.087860,44.284931 
	C103.961487,43.863144 104.371399,43.715054 104.580711,44.120266 
	C104.798599,44.542084 104.834595,45.057850 104.973618,45.767784 
	C104.997101,46.003029 105.000000,46.000023 105.001091,45.999504 
z"/>
<path fill="#0A0A0A" opacity="1.000000" stroke="none" 
	d="
M60.188377,71.096611 
	C60.134396,70.859497 60.166370,70.636269 60.198349,70.413040 
	C60.223675,70.645523 60.249004,70.878014 60.188377,71.096611 
z"/>
<path fill="#0A0A0A" opacity="1.000000" stroke="none" 
	d="
M10.280561,40.850891 
	C10.104891,41.014141 9.900382,41.092377 9.695875,41.170616 
	C9.881158,41.035706 10.066440,40.900791 10.280561,40.850891 
z"/>
<path fill="#0A0A0A" opacity="1.000000" stroke="none" 
	d="
M57.975517,63.313644 
	C57.992485,63.262173 58.286560,63.423542 58.286560,63.423542 
	C58.286560,63.423542 57.958546,63.365112 57.975517,63.313644 
z"/>
<path fill="#0A0A0A" opacity="1.000000" stroke="none" 
	d="
M61.301102,7.717421 
	C61.411938,7.548487 61.594776,7.425100 61.777615,7.301711 
	C61.642776,7.455462 61.507942,7.609215 61.301102,7.717421 
z"/>
<path fill="#0A0A0A" opacity="1.000000" stroke="none" 
	d="
M86.987823,103.387390 
	C87.047752,103.183319 87.184341,103.010590 87.320923,102.837852 
	C87.235443,103.031479 87.149963,103.225098 86.987823,103.387390 
z"/>
<path fill="#0A0A0A" opacity="1.000000" stroke="none" 
	d="
M91.208656,14.525106 
	C91.062531,14.490022 90.972214,14.418832 90.881905,14.347641 
	C91.009422,14.394760 91.136948,14.441881 91.208656,14.525106 
z"/>
<path fill="#0A0A0A" opacity="1.000000" stroke="none" 
	d="
M101.128387,77.876236 
	C101.186455,77.570038 101.373550,77.140717 101.560654,76.711403 
	C101.459579,77.058640 101.358498,77.405876 101.128387,77.876236 
z"/>
<path fill="#0A0A0A" opacity="1.000000" stroke="none" 
	d="
M86.019928,12.042200 
	C85.999954,12.057869 86.039902,12.026530 86.019928,12.042200 
z"/>
<path fill="#0A0A0A" opacity="1.000000" stroke="none" 
	d="
M105.069412,35.948433 
	C105.296188,36.096237 105.473854,36.291286 105.651527,36.486336 
	C105.458557,36.417923 105.265579,36.349510 104.998108,36.186401 
	C104.923599,36.091705 105.020309,35.995682 105.069412,35.948433 
z"/>
<path fill="#0A0A0A" opacity="1.000000" stroke="none" 
	d="
M11.553568,35.903046 
	C11.594512,35.927086 11.438662,36.185474 11.438662,36.185474 
	C11.438662,36.185474 11.512623,35.879002 11.553568,35.903046 
z"/>
<path fill="#0A0A0A" opacity="1.000000" stroke="none" 
	d="
M73.019592,33.039322 
	C73.002434,33.052399 73.036751,33.026241 73.019592,33.039322 
z"/>
<path fill="#0A0A0A" opacity="1.000000" stroke="none" 
	d="
M72.988319,11.968733 
	C73.004517,11.956478 72.972122,11.980988 72.988319,11.968733 
z"/>
<path fill="#0A0A0A" opacity="1.000000" stroke="none" 
	d="
M26.938404,12.017991 
	C26.919283,11.994223 26.957523,12.041759 26.938404,12.017991 
z"/>
<path fill="#0A0A0A" opacity="1.000000" stroke="none" 
	d="
M41.000465,103.000809 
	C41.336246,102.719971 41.671566,102.438339 42.006886,102.156700 
	C41.776951,102.399399 41.547012,102.642097 41.157639,102.941681 
	C40.998196,102.998558 41.000000,103.000000 41.000465,103.000809 
z"/>
<path fill="#0A0A0A" opacity="1.000000" stroke="none" 
	d="
M104.515556,70.485313 
	C104.533646,70.497887 104.497467,70.472740 104.515556,70.485313 
z"/>
<path fill="#0A0A0A" opacity="1.000000" stroke="none" 
	d="
M93.985313,19.006195 
	C93.853188,18.905993 93.735199,18.794100 93.617210,18.682209 
	C93.720856,18.710329 93.824509,18.738447 93.976791,18.867464 
	C94.025421,18.968363 93.999451,18.994509 93.985313,19.006195 
z"/>
<path fill="#0A0A0A" opacity="1.000000" stroke="none" 
	d="
M7.499338,62.492527 
	C7.520249,62.488216 7.478426,62.496838 7.499338,62.492527 
z"/>
<path fill="#0A0A0A" opacity="1.000000" stroke="none" 
	d="
M96.001579,39.001717 
	C96.040733,38.935692 96.078308,38.867985 96.056885,38.899704 
	C95.997879,38.999130 96.000000,39.000038 96.001579,39.001717 
z"/>
<path fill="#0A0A0A" opacity="1.000000" stroke="none" 
	d="
M67.496429,98.004913 
	C67.484406,97.992096 67.508446,98.017731 67.496429,98.004913 
z"/>
<path fill="#0A0A0A" opacity="1.000000" stroke="none" 
	d="
M33.999836,92.000046 
	C33.999672,92.000092 34.028118,92.089195 34.014233,92.044449 
	C34.000347,91.999695 34.000000,92.000000 33.999836,92.000046 
z"/>
<path fill="#0A0A0A" opacity="1.000000" stroke="none" 
	d="
M30.014357,80.041779 
	C29.993832,80.006363 30.034882,80.077194 30.014357,80.041779 
z"/>
<path fill="#0A0A0A" opacity="1.000000" stroke="none" 
	d="
M51.019814,110.984726 
	C51.031307,110.973305 51.073589,111.078224 51.031525,111.049789 
	C50.989464,111.021362 51.008324,110.996147 51.019814,110.984726 
z"/>
<path fill="#0A0A0A" opacity="1.000000" stroke="none" 
	d="
M53.995476,84.496620 
	C54.008102,84.485016 53.982849,84.508224 53.995476,84.496620 
z"/>
<path fill="#0A0A0A" opacity="1.000000" stroke="none" 
	d="
M61.996475,39.995728 
	C61.993240,39.991875 62.063324,39.926964 62.034840,39.964931 
	C62.006355,40.002899 61.999714,39.999580 61.996475,39.995728 
z"/>
<path fill="#0A0A0A" opacity="1.000000" stroke="none" 
	d="
M43.994259,31.495197 
	C44.007156,31.482998 43.981361,31.507395 43.994259,31.495197 
z"/>
<path fill="#0A0A0A" opacity="1.000000" stroke="none" 
	d="
M9.503273,70.995232 
	C9.514848,71.007843 9.491699,70.982620 9.503273,70.995232 
z"/>
<path fill="#0A0A0A" opacity="1.000000" stroke="none" 
	d="
M10.474826,76.018776 
	C10.476737,76.002449 10.472915,76.035103 10.474826,76.018776 
z"/>
<path fill="#0A0A0A" opacity="1.000000" stroke="none" 
	d="
M75.513977,75.503876 
	C75.511284,75.486923 75.516670,75.520828 75.513977,75.503876 
z"/>
<path fill="#0A0A0A" opacity="1.000000" stroke="none" 
	d="
M78.496246,105.514038 
	C78.513153,105.511566 78.479332,105.516510 78.496246,105.514038 
z"/>
<path fill="#0A0A0A" opacity="1.000000" stroke="none" 
	d="
M62.496082,3.514836 
	C62.512680,3.512541 62.479485,3.517131 62.496082,3.514836 
z"/>
<path fill="#0A0A0A" opacity="1.000000" stroke="none" 
	d="
M106.509399,66.503250 
	C106.504623,66.483398 106.514183,66.523094 106.509399,66.503250 
z"/>
<path fill="#0A0A0A" opacity="1.000000" stroke="none" 
	d="
M81.486877,104.497818 
	C81.489807,104.514458 81.483940,104.481178 81.486877,104.497818 
z"/>
<path fill="#0A0A0A" opacity="1.000000" stroke="none" 
	d="
M71.502731,30.486607 
	C71.485138,30.490353 71.520317,30.482859 71.502731,30.486607 
z"/>
<path fill="#0A0A0A" opacity="1.000000" stroke="none" 
	d="
M31.503992,99.486519 
	C31.486849,99.489357 31.521135,99.483681 31.503992,99.486519 
z"/>
<path fill="#0A0A0A" opacity="1.000000" stroke="none" 
	d="
M31.503399,10.485785 
	C31.486443,10.488153 31.520357,10.483418 31.503399,10.485785 
z"/>
<path fill="#0A0A0A" opacity="1.000000" stroke="none" 
	d="
M107.009483,79.021538 
	C106.818680,79.275688 106.601379,79.502487 106.168289,79.848152 
	C106.166054,79.736435 106.381851,79.507835 106.784096,79.132477 
	C106.957771,78.973656 106.993515,79.004280 107.009483,79.021538 
z"/>
<path fill="#0A0A0A" opacity="1.000000" stroke="none" 
	d="
M46.511150,10.502766 
	C46.507462,10.485240 46.514839,10.520290 46.511150,10.502766 
z"/>
<path fill="#0A0A0A" opacity="1.000000" stroke="none" 
	d="
M56.503990,85.485680 
	C56.487228,85.488052 56.520756,85.483307 56.503990,85.485680 
z"/>
<path fill="#0A0A0A" opacity="1.000000" stroke="none" 
	d="
M101.000328,78.000336 
	C101.000656,78.000671 100.965012,78.021423 100.982178,78.010391 
	C100.999352,77.999352 101.000000,78.000000 101.000328,78.000336 
z"/>
<path fill="#0A0A0A" opacity="1.000000" stroke="none" 
	d="
M67.996162,84.995682 
	C67.992325,84.991539 68.039825,84.982132 68.023895,84.994690 
	C68.007973,85.007248 68.000000,84.999832 67.996162,84.995682 
z"/>
<path fill="#0A0A0A" opacity="1.000000" stroke="none" 
	d="
M30.003307,79.996895 
	C30.006535,79.993790 29.974285,79.971893 29.984058,79.989128 
	C29.993832,80.006363 30.000080,80.000000 30.003307,79.996895 
z"/>
<path fill="#0A0A0A" opacity="1.000000" stroke="none" 
	d="
M72.016396,79.989822 
	C72.000381,80.000214 72.032410,79.979424 72.016396,79.989822 
z"/>
<path fill="#0A0A0A" opacity="1.000000" stroke="none" 
	d="
M17.496265,82.513977 
	C17.513182,82.511269 17.479347,82.516685 17.496265,82.513977 
z"/>
<path fill="#0A0A0A" opacity="1.000000" stroke="none" 
	d="
M104.830353,81.150482 
	C104.828842,81.260101 104.610489,81.486824 104.205994,81.860878 
	C104.031204,82.019127 104.002525,81.995773 103.990250,81.980713 
	C104.182442,81.726089 104.398064,81.497047 104.830353,81.150482 
z"/>
<path fill="#0A0A0A" opacity="1.000000" stroke="none" 
	d="
M70.983681,81.010147 
	C71.000000,81.000000 70.967361,81.020302 70.983681,81.010147 
z"/>
<path fill="#0A0A0A" opacity="1.000000" stroke="none" 
	d="
M104.988647,80.977356 
	C105.177147,80.725418 105.391556,80.501259 105.790344,80.132690 
	C105.963036,79.977097 105.994904,80.002464 106.008759,80.018440 
	C105.819542,80.269905 105.605339,80.494774 105.207924,80.865746 
	C105.035851,81.022461 105.002853,80.993958 104.988647,80.977356 
z"/>
<path fill="#0A0A0A" opacity="1.000000" stroke="none" 
	d="
M71.999893,79.999817 
	C71.790001,80.234085 71.571915,80.460518 71.172760,80.839478 
	C71.209900,80.765671 71.428131,80.539368 71.827530,80.160645 
	C72.000381,80.000214 72.000000,80.000000 71.999893,79.999817 
z"/>
</svg>